<svg width="120" height="40" viewBox="0 0 120 40" fill="none" xmlns="http://www.w3.org/2000/svg">
  <path d="M20 16C20 15.1 19.9 14.3 19.7 13.5H10V17.5H15.7C15.4 19 14.5 20.3 13.2 21.1V24.1H16.7C18.7 22.3 20 19.5 20 16Z" fill="#4285F4"/>
  <path d="M10 26C12.9 26 15.3 25 16.7 23.1L13.2 20.1C12.3 20.7 11.2 21 10 21C7.3 21 5 19.2 4.2 16.7H0.7V19.8C2.1 23.4 5.8 26 10 26Z" fill="#34A853"/>
  <path d="M4.2 16.7C3.9 15.9 3.8 15 3.8 14C3.8 13 3.9 12.1 4.2 11.3V8.2H0.7C0.2 9.3 0 10.6 0 12C0 13.4 0.2 14.7 0.7 15.8L4.2 16.7Z" fill="#FBBC05"/>
  <path d="M10 7C11.5 7 12.9 7.5 14 8.5L17.1 5.4C15.3 3.7 12.9 2.7 10 2.7C5.8 2.7 2.1 5.3 0.7 8.9L4.2 11.3C5 8.8 7.3 7 10 7Z" fill="#EA4335"/>
  <path d="M40 16H120V24H40V16Z" fill="#666666"/>
</svg> 